name Walk8.mot
datacolumns 19
datarows 30
range 4.35500000 4.50000000
endheader

                time	   L_ground_force_vx	   L_ground_force_vy	   L_ground_force_vz	   L_ground_force_px	   L_ground_force_py	   L_ground_force_pz	   R_ground_force_vx	   R_ground_force_vy	   R_ground_force_vz	   R_ground_force_px	   R_ground_force_py	   R_ground_force_pz	   L_ground_torque_x	   L_ground_torque_y	   L_ground_torque_z	   R_ground_torque_x	   R_ground_torque_y	   R_ground_torque_z	
          4.35500000	          0.09372169	          0.27869766	          0.01307753	         -0.00012803	          0.00000000	         -0.00002260	         -6.32271383	        871.82247195	        -64.51792007	          0.10545109	          0.00000000	          0.14788262	          0.00000000	         -0.00006710	          0.00000000	          0.00000000	         13.52717202	          0.00000000	
          4.36000000	          0.07713766	          0.24250668	          0.01233356	         -0.00031147	          0.00000000	         -0.00005659	         -5.00336640	        873.39447349	        -63.34849861	          0.10615328	          0.00000000	          0.14786207	          0.00000000	          0.00013223	          0.00000000	          0.00000000	         13.33247620	          0.00000000	
          4.36500000	          0.06040199	          0.20011875	          0.01088103	         -0.00040447	          0.00000000	         -0.00007392	         -3.71060858	        875.66044544	        -62.26076954	          0.10688241	          0.00000000	          0.14784234	          0.00000000	          0.00024960	          0.00000000	          0.00000000	         13.14695983	          0.00000000	
          4.37000000	          0.04489266	          0.15710923	          0.00908899	         -0.00043213	          0.00000000	         -0.00007918	         -2.41564221	        878.60469574	        -61.31036375	          0.10763569	          0.00000000	          0.14782927	          0.00000000	          0.00030512	          0.00000000	          0.00000000	         12.97062998	          0.00000000	
          4.37500000	          0.03139636	          0.11710261	          0.00722097	         -0.00041568	          0.00000000	         -0.00007630	         -1.09317862	        882.18129989	        -60.54095569	          0.10840945	          0.00000000	          0.14782804	          0.00000000	          0.00031660	          0.00000000	          0.00000000	         12.80252079	          0.00000000	
          4.38000000	          0.02025837	          0.08218574	          0.00545194	         -0.00037226	          0.00000000	         -0.00006841	          0.27763013	        886.31417153	        -59.98366325	          0.10919766	          0.00000000	          0.14784190	          0.00000000	          0.00029892	          0.00000000	          0.00000000	         12.64067400	          0.00000000	
          4.38500000	          0.01151360	          0.05329433	          0.00388632	         -0.00031498	          0.00000000	         -0.00005794	          1.71247564	        890.90562702	        -59.65791631	          0.10999394	          0.00000000	          0.14787228	          0.00000000	          0.00026394	          0.00000000	          0.00000000	         12.48246532	          0.00000000	
          4.39000000	          0.00499517	          0.03055189	          0.00257496	         -0.00025333	          0.00000000	         -0.00004665	          3.22081621	        895.84540142	        -59.57183343	          0.11079413	          0.00000000	          0.14791943	          0.00000000	          0.00022064	          0.00000000	          0.00000000	         12.32499794	          0.00000000	
          4.39500000	          0.00041996	          0.01355132	          0.00153036	         -0.00019376	          0.00000000	         -0.00003572	          4.80549740	        901.01875672	        -59.72177999	          0.11159623	          0.00000000	          0.14798262	          0.00000000	          0.00017541	          0.00000000	          0.00000000	         12.16560087	          0.00000000	
          4.40000000	         -0.00254724	          0.00157744	          0.00073944	         -0.00014024	          0.00000000	         -0.00002588	          6.46334505	        906.31356025	        -60.09314982	          0.11239930	          0.00000000	          0.14806107	          0.00000000	          0.00013254	          0.00000000	          0.00000000	         12.00206725	          0.00000000	
          4.40500000	         -0.00424860	         -0.00622594	          0.00017376	         -0.00009482	          0.00000000	         -0.00001753	          8.18593036	        911.62750469	        -60.66168131	          0.11320394	          0.00000000	          0.14815429	          0.00000000	          0.00009457	          0.00000000	          0.00000000	         11.83238974	          0.00000000	
          4.41000000	         -0.00500363	         -0.01073769	         -0.00020274	         -0.00005820	          0.00000000	         -0.00001078	          9.96058508	        916.87395910	        -61.39527477	          0.11401169	          0.00000000	          0.14826160	          0.00000000	          0.00006273	          0.00000000	          0.00000000	         11.65490279	          0.00000000	
          4.41500000	         -0.00509209	         -0.01278177	         -0.00042815	         -0.00003011	          0.00000000	         -0.00000561	         11.77157013	        921.98456723	        -62.25624227	          0.11482350	          0.00000000	          0.14838195	          0.00000000	          0.00003736	          0.00000000	          0.00000000	         11.46885738	          0.00000000	
          4.42000000	         -0.00474610	         -0.01308172	         -0.00053884	         -0.00000972	          0.00000000	         -0.00000184	         13.60167606	        926.91096005	        -63.20375198	          0.11563981	          0.00000000	          0.14851374	          0.00000000	          0.00001813	          0.00000000	          0.00000000	         11.27425685	          0.00000000	
          4.42500000	         -0.00414886	         -0.01223946	         -0.00056720	          0.00000413	          0.00000000	          0.00000072	         15.43320846	        931.62579224	        -64.19643662	          0.11646134	          0.00000000	          0.14865517	          0.00000000	          0.00000437	          0.00000000	          0.00000000	         11.07140927	          0.00000000	
          4.43000000	         -0.00343774	         -0.01073135	         -0.00054054	          0.00001268	          0.00000000	          0.00000230	         17.24912067	        936.11901960	        -65.19490432	          0.11729062	          0.00000000	          0.14880431	          0.00000000	         -0.00000480	          0.00000000	          0.00000000	         10.86061567	          0.00000000	
          4.43500000	         -0.00270982	         -0.00891550	         -0.00048069	          0.00001717	          0.00000000	          0.00000314	         19.03401251	        940.38762634	        -66.16427954	          0.11813033	          0.00000000	          0.14895904	          0.00000000	         -0.00001031	          0.00000000	          0.00000000	         10.64210857	          0.00000000	
          4.44000000	         -0.00202871	         -0.00704593	         -0.00040429	          0.00001868	          0.00000000	          0.00000342	         20.77536158	        944.42653062	        -67.07688629	          0.11898194	          0.00000000	          0.14911743	          0.00000000	         -0.00001302	          0.00000000	          0.00000000	         10.41623938	          0.00000000	
          4.44500000	         -0.00143148	         -0.00528976	         -0.00032332	          0.00001818	          0.00000000	          0.00000334	         22.46430937	        948.22447090	        -67.91398976	          0.11984693	          0.00000000	          0.14927670	          0.00000000	         -0.00001373	          0.00000000	          0.00000000	         10.18385161	          0.00000000	
          4.45000000	         -0.00093528	         -0.00374520	         -0.00024583	          0.00001642	          0.00000000	          0.00000302	         24.09484358	        951.76305474	        -68.66564884	          0.12072804	          0.00000000	          0.14943377	          0.00000000	         -0.00001310	          0.00000000	          0.00000000	          9.94630336	          0.00000000	
          4.45500000	         -0.00054310	         -0.00245851	         -0.00017669	          0.00001399	          0.00000000	          0.00000257	         25.66302250	        955.01645190	        -69.32915130	          0.12162777	          0.00000000	          0.14958670	          0.00000000	         -0.00001166	          0.00000000	          0.00000000	          9.70532391	          0.00000000	
          4.46000000	         -0.00024866	         -0.00143894	         -0.00011838	          0.00001132	          0.00000000	          0.00000209	         27.16676352	        957.95367801	        -69.90705543	          0.12254836	          0.00000000	          0.14973475	          0.00000000	         -0.00000981	          0.00000000	          0.00000000	          9.46247284	          0.00000000	
          4.46500000	         -0.00004017	         -0.00067131	         -0.00007162	          0.00000872	          0.00000000	          0.00000161	         28.60583973	        960.54452607	        -70.40660598	          0.12349432	          0.00000000	          0.14987870	          0.00000000	         -0.00000785	          0.00000000	          0.00000000	          9.21887674	          0.00000000	
          4.47000000	          0.00009671	         -0.00012595	         -0.00003598	          0.00000636	          0.00000000	          0.00000117	         29.98184595	        962.76163244	        -70.83889594	          0.12447208	          0.00000000	          0.15002065	          0.00000000	         -0.00000598	          0.00000000	          0.00000000	          8.97532364	          0.00000000	
          4.47500000	          0.00017684	          0.00023374	         -0.00001027	          0.00000435	          0.00000000	          0.00000080	         31.29788816	        964.58303335	        -71.21710825	          0.12548791	          0.00000000	          0.15016367	          0.00000000	         -0.00000430	          0.00000000	          0.00000000	          8.73201756	          0.00000000	
          4.48000000	          0.00021424	          0.00044592	          0.00000703	          0.00000271	          0.00000000	          0.00000050	         32.55892796	        965.99457891	        -71.55528756	          0.12654695	          0.00000000	          0.15031100	          0.00000000	         -0.00000288	          0.00000000	          0.00000000	          8.48883652	          0.00000000	
          4.48500000	          0.00022128	          0.00054672	          0.00001756	          0.00000145	          0.00000000	          0.00000027	         33.77219931	        966.99051374	        -71.86653719	          0.12765135	          0.00000000	          0.15046510	          0.00000000	         -0.00000175	          0.00000000	          0.00000000	          8.24538943	          0.00000000	
          4.49000000	          0.00020829	          0.00056812	          0.00002293	          0.00000052	          0.00000000	          0.00000010	         34.94694913	        967.57433739	        -72.16142204	          0.12880023	          0.00000000	          0.15062704	          0.00000000	         -0.00000088	          0.00000000	          0.00000000	          8.00122820	          0.00000000	
          4.49500000	          0.00018349	          0.00053691	          0.00002456	         -0.00000011	          0.00000000	         -0.00000002	         36.09326549	        967.75964491	        -72.44711429	          0.12999085	          0.00000000	          0.15079636	          0.00000000	         -0.00000026	          0.00000000	          0.00000000	          7.75595233	          0.00000000	
          4.50000000	          0.00015307	          0.00047443	          0.00002366	         -0.00000051	          0.00000000	         -0.00000009	         37.22047186	        967.57204585	        -72.72720331	          0.13121992	          0.00000000	          0.15097214	          0.00000000	          0.00000017	          0.00000000	          0.00000000	          7.50940880	          0.00000000	
